<?xml version="1.0" encoding="utf-8"?>
<!-- Generator: Adobe Illustrator 25.0.1, SVG Export Plug-In . SVG Version: 6.00 Build 0)  -->
<svg version="1.1" id="Layer_1" xmlns="http://www.w3.org/2000/svg" xmlns:xlink="http://www.w3.org/1999/xlink" x="0px" y="0px"
	 viewBox="0 0 800 800" style="enable-background:new 0 0 800 800;" xml:space="preserve">
<style type="text/css">
	.st0{fill:#0071BC;}
</style>
<path class="st0" d="M421,228.3c-22.7,0-41.7,4.3-60,13.9c-16.9,8.8-37.7,26.2-47.9,40.2c-17.3,23.6-16.4,22.8-24.6,19.5
	c-25.8-10.7-55.6-12.6-79.4-5c-43.9,14.1-75.4,58.1-77.2,108c-0.3,8-1.2,15.7-2.1,17.2c-0.8,1.4-6.2,3.8-11.9,5.3
	c-27,7.1-48.5,25.1-59.7,50c-5.3,11.8-5.9,15.7-5.9,39.5c0,25,0.4,27.1,7.1,41.3c11.8,25,36.9,46.8,60.7,52.7
	c8.6,2.1,70.7,2.8,72.7,0.8c0.8-0.8-0.5-5.4-2.9-10.2c-6.3-12.8-10.8-35.3-10.8-53.6c0-50.4,29.1-89.7,79.1-106.8
	c16.1-5.5,19.9-7.9,19.9-12.8c0-6.9,11.9-34.4,21.3-49.1c13.1-20.7,30.4-36.6,52-47.7c54-27.7,117.6-18.9,156.6,21.6l13.8,14.3
	l15.1-4.1c8.3-2.2,17.9-4.2,21.2-4.2c7.6-0.1,7.9-5.8,1.5-26C539.2,269.8,484.4,228.4,421,228.3L421,228.3z"/>
<g>
	<path d="M277.9,724.1l28.9-8.8c3.3-1,4.7-5.7,3.3-10.4l-17.1-55.9l55.3-16.9l17.1,55.9c1.4,4.7,5.3,7.8,8.5,6.8l212.2-64.7
		c3.3-1,4.7-5.7,3.3-10.4l-17.1-55.9l55.3-16.9l17.1,55.9c1.4,4.7,5.3,7.8,8.5,6.8l28.9-8.8c3.3-1,4.7-5.7,3.3-10.4L530.6,82.7
		c-1.4-4.7-5.3-7.8-8.5-6.8l-28.9,8.8c-3.3,1-4.7,5.7-3.3,10.4l17.1,55.9l-55.3,16.9L434.6,112c-1.4-4.7-5.3-7.8-8.5-6.8
		l-212.2,64.7c-3.3,1-4.7,5.7-3.3,10.4l17.1,55.9l-55.3,16.9l-17.1-55.9c-1.4-4.7-5.3-7.8-8.5-6.8l-28.9,8.8
		c-3.3,1-4.7,5.7-3.3,10.4l154.8,507.7C270.8,722,274.7,725.1,277.9,724.1z M475.5,246.2l55.3-16.9l24.5,80.4l-55.3,16.9
		L475.5,246.2z M524,405l55.3-16.9l24.5,80.4l-55.3,16.9L524,405z M196.2,331.4l55.3-16.9L276,395l-55.3,16.9L196.2,331.4z
		 M244.6,490.2l55.3-16.9l24.5,80.4l-55.3,16.9L244.6,490.2z"/>
</g>
<path class="st0" d="M428.2,352c-26.9-0.1-38.2,2.4-60.4,14c-21.3,11.1-41.2,38.2-52,70.7c-2.4,7.1-4.3,15.2-4.3,17.9
	c0,8.6-5,12.4-21.3,15.8c-32.7,7-57.6,26-66.9,51.1c-3.8,10.3-4.9,17.9-4.9,33.9c0.1,49.9,22.7,83.6,63.4,94.1
	c8.5,2.2,57.4,2.7,211.3,2.4l200.3-0.4l9-5.1c19.2-10.7,31.3-32.2,33.3-59.1c3-41.2-13.7-69.2-49.5-82.5l-12.6-4.7l-1.3-17.8
	c-5.1-65.2-68.5-104.2-132.2-81.3l-13.2,4.7l-14.6-16.1C485.6,360.7,466.5,352.1,428.2,352"/>
</svg>
